<svg xmlns="http://www.w3.org/2000/svg" xmlns:xlink="http://www.w3.org/1999/xlink" version="1.1" id="Layer_1" x="0px" y="0px" viewBox="0 0 100.5 37.5" style="enable-background:new 0 0 100.5 37.5;" xml:space="preserve">
<style type="text/css">
	.st0{fill:#F5F8FC;}
	.st1{fill:#006FCF;}
</style>
    <g>
	<g>
		<path class="st0" d="M25.9,17v-1.3L25.3,17H20l-0.6-1.4v1.3H9.5l-1.1-2.8H6.5l-1.3,2.8H0.1V8.5L3.9,0h7.2l1,2.4V0.1h8.8l1.9,4.1    l1.9-4.1h27.8c0,0,1.4,0,2.4,0.6V0.1h7V1c0,0,1.2-0.9,3.2-0.9c1.8,0,12.3,0,12.3,0l1.1,2.4V0.1h8l1.4,2.4V0.1h7.5V17h-7.8l-1.8-3    v3H76l-1.3-3.1h-1.9L71.5,17h-5.8c0,0-2.1,0-3.8-1.2c0,0.6,0,1.2,0,1.2H50.1c0,0,0-3.4,0-4s-0.4-0.5-0.4-0.5h-0.4V17L25.9,17    L25.9,17z"/>
        <path class="st0" d="M20.1,20.6h15.3l2.2,2.5l2.2-2.5h11.7c0,0,1.1,0,2.1,0.6v-0.6c0,0,9.2,0,10.5,0c1.3,0,2.4,0.7,2.4,0.7v-0.7    H80v0.6c0,0,0.9-0.6,2.2-0.6s8.8,0,8.8,0v0.6c0,0,1.1-0.6,2.2-0.6s6.9,0,6.9,0v15.9c0,0-0.9,1-2.8,1h-9.1V37c0,0-0.8,0.5-2.1,0.5    c-1.3,0-24.2,0-24.2,0s0-3.7,0-4.1c0-0.4-0.2-0.5-0.5-0.5h-0.3v4.6h-7.5v-4.6c0,0-0.8,0.4-2.2,0.4c-1.4,0-2.8,0-2.8,0v4.1h-9.3    l-2.1-2.5l-2,2.6H20.1V20.6z"/>
        <polygon class="st1" points="68.4,23.2 78,23.2 78,25.7 71.3,25.7 71.3,28 77.8,28 77.8,30.2 71.3,30.2 71.3,32.6 78,32.6     78,35.1 68.4,35.1   "/>
        <path class="st1" d="M96.6,27.8c3.6,0.2,3.9,2,3.9,3.9c0,2.2-1.8,3.5-3.8,3.5h-6.2v-2.5h4.8c0.8,0,2,0,2-1.1c0-0.5-0.2-0.9-1.1-1    c-0.4-0.1-1.8-0.1-2-0.1c-3.3-0.1-4-1.7-4-3.7c0-2.2,1.5-3.5,3.5-3.5h6.2v2.5h-4.5c-1,0-2.1-0.1-2.1,1c0,0.7,0.5,0.9,1.2,0.9    C94.7,27.7,96.4,27.8,96.6,27.8z"/>
        <path class="st1" d="M85.4,27.8c3.6,0.2,3.9,2,3.9,3.9c0,2.2-1.8,3.5-3.8,3.5h-6.2v-2.5h4.8c0.8,0,2,0,2-1.1c0-0.5-0.2-0.9-1.1-1    c-0.4-0.1-1.8-0.1-2-0.1c-3.3-0.1-4-1.7-4-3.7c0-2.2,1.5-3.5,3.5-3.5h6.2v2.5h-4.5c-1,0-2.1-0.1-2.1,1c0,0.7,0.5,0.9,1.2,0.9    C83.6,27.7,85.2,27.8,85.4,27.8z"/>
        <path class="st1" d="M50.7,23.2H40.3l-3.4,3.7l-3.3-3.8H22.1V35h11.2l3.6-4l3.5,4H46v-4.1h4c1.5,0,4.3-0.1,4.3-4.3    C54.1,23.8,52.1,23.2,50.7,23.2z M31.8,32.6H25v-2.3h6.5v-2.2H25v-2.2h7.1l2.9,3.3L31.8,32.6z M43,34l-4.2-5l4.2-4.7V34z     M49.6,28.6h-3.7v-2.9h3.7c1.2,0,1.6,0.8,1.6,1.3C51.3,27.9,50.9,28.6,49.6,28.6z"/>
        <path class="st1" d="M64.8,29.7c1.6-0.8,2-1.8,2-3.4c0-2.5-2-3.2-3.6-3.2h-7.6V35h3v-4.2h3.9c1,0,1.4,1,1.4,2L64,35h2.9l-0.1-2.2    C66.8,30.7,66.2,29.8,64.8,29.7z M62.3,28.5h-3.7v-2.8h3.7c1.2,0,1.6,0.8,1.6,1.3C63.9,27.9,63.5,28.5,62.3,28.5z"/>
        <rect x="56.9" y="2.5" class="st1" width="3" height="12"/>
        <polygon class="st1" points="32.8,2.5 42.4,2.5 42.4,5 35.8,5 35.8,7.3 42.2,7.3 42.2,9.6 35.8,9.6 35.8,12 42.4,12 42.4,14.4     32.8,14.4   "/>
        <path class="st1" d="M53.3,9c1.6-0.8,2-1.8,2-3.4c0-2.5-2-3.2-3.6-3.2h-7.6v11.9h3v-4.2H51c1,0,1.4,1,1.4,2l0.1,2.2h2.9l-0.2-2.2    C55.2,10,54.6,9.2,53.3,9z M50.8,7.8h-3.7V5h3.7c1.2,0,1.6,0.8,1.6,1.3C52.4,7.3,52,7.8,50.8,7.8z"/>
        <path class="st1" d="M26,2.5l-3.6,8.1l-3.6-8.1h-4.6V14L9.1,2.5H5.2L0,14.4h3.1l1.1-2.7h6l1.1,2.7h5.9V5.5l4,8.9h2.7l4-8.8v8.8h3    V2.5H26z M5.3,9.2L7,5l1.8,4.2C8.8,9.2,5.3,9.2,5.3,9.2z"/>
        <path class="st1" d="M90.1,2.5v8.3l-5-8.3h-4.4v11.2l-5-11.2h-3.9l-4,9.3c0,0-1.7,0-1.8,0c-0.7-0.1-1.8-0.6-1.8-2.8V8.1    c0-2.9,1.5-3.1,3.5-3.1h1.8V2.3h-3.9c-1.3,0-4.3,1-4.4,5.9c-0.1,3.4,1.3,6,4.6,6h3.9l1.1-2.7h5.9l1.1,2.7h5.8V5.4l5.3,8.8h4V2.5    H90.1z M72.1,9.2L73.8,5l1.8,4.2C75.6,9.2,72.1,9.2,72.1,9.2z"/>
	</g>
</g>
</svg>