<svg width="26" height="26" viewBox="0 0 26 26" fill="none" xmlns="http://www.w3.org/2000/svg">
<path d="M13 0.85C6.30036 0.85 0.85 6.30036 0.85 13C0.85 19.6996 6.30036 25.15 13 25.15C19.6996 25.15 25.15 19.6996 25.15 13C25.15 6.30036 19.6996 0.85 13 0.85ZM13 24.05C6.90724 24.05 1.95 19.0928 1.95 13C1.95 6.90724 6.90724 1.95 13 1.95C19.0928 1.95 24.05 6.90724 24.05 13C24.05 19.0928 19.0928 24.05 13 24.05Z" fill="#24AA59" stroke="#24AA59" stroke-width="0.3"/>
<path d="M14.7502 12.9512C14.7502 12.1776 14.2445 11.5269 13.5502 11.296V7.35117C13.5502 7.04703 13.3037 6.80117 13.0002 6.80117C12.6967 6.80117 12.4502 7.04703 12.4502 7.35117V11.2961C11.9289 11.4697 11.5187 11.8799 11.3451 12.4012H8.6002C8.29665 12.4012 8.0502 12.647 8.0502 12.9512C8.0502 13.2553 8.29665 13.5012 8.6002 13.5012H11.345C11.576 14.1955 12.227 14.7012 13.0002 14.7012C13.9654 14.7012 14.7502 13.9164 14.7502 12.9512ZM13.0002 13.6012C12.6418 13.6012 12.3502 13.3095 12.3502 12.9512C12.3502 12.5928 12.6418 12.3012 13.0002 12.3012C13.3586 12.3012 13.6502 12.5928 13.6502 12.9512C13.6502 13.3095 13.3586 13.6012 13.0002 13.6012Z" fill="#24AA59" stroke="#24AA59" stroke-width="0.3"/>
<path d="M13.0016 5.10195C13.3051 5.10195 13.5516 4.85609 13.5516 4.55195V4.15195C13.5516 3.84781 13.3051 3.60195 13.0016 3.60195C12.698 3.60195 12.4516 3.84781 12.4516 4.15195V4.55195C12.4516 4.85609 12.698 5.10195 13.0016 5.10195Z" fill="#24AA59" stroke="#24AA59" stroke-width="0.3"/>
<path d="M13.0016 20.8012C12.698 20.8012 12.4516 21.047 12.4516 21.3512V21.7512C12.4516 22.0553 12.698 22.3012 13.0016 22.3012C13.3051 22.3012 13.5516 22.0553 13.5516 21.7512V21.3512C13.5516 21.047 13.3051 20.8012 13.0016 20.8012Z" fill="#24AA59" stroke="#24AA59" stroke-width="0.3"/>
<path d="M21.8 12.4008H21.4C21.0965 12.4008 20.85 12.6466 20.85 12.9508C20.85 13.2549 21.0965 13.5008 21.4 13.5008H21.8C22.1035 13.5008 22.35 13.2549 22.35 12.9508C22.35 12.6466 22.1035 12.4008 21.8 12.4008Z" fill="#24AA59" stroke="#24AA59" stroke-width="0.3"/>
<path d="M4.5998 12.4008H4.1998C3.89626 12.4008 3.6498 12.6466 3.6498 12.9508C3.6498 13.2549 3.89626 13.5008 4.1998 13.5008H4.5998C4.90335 13.5008 5.1498 13.2549 5.1498 12.9508C5.1498 12.6466 4.90335 12.4008 4.5998 12.4008Z" fill="#24AA59" stroke="#24AA59" stroke-width="0.3"/>
<path d="M18.8332 6.33907L18.8331 6.33921L18.5503 6.62201L18.6538 6.72554L18.5503 6.62201C18.3353 6.83699 18.3353 7.18476 18.5503 7.39974C18.6575 7.50694 18.7985 7.56088 18.9392 7.56088C19.0798 7.56088 19.2208 7.50694 19.328 7.39974L19.6108 7.11694C19.8258 6.90196 19.8258 6.55419 19.6108 6.33921C19.3957 6.12406 19.048 6.12485 18.8332 6.33907Z" fill="#24AA59" stroke="#24AA59" stroke-width="0.3"/>
<path d="M6.66903 18.5033L6.38623 18.7861C6.17126 19.0011 6.17126 19.3488 6.38623 19.5638C6.49343 19.671 6.63445 19.7249 6.7751 19.7249C6.91575 19.7249 7.05677 19.671 7.16397 19.5638L7.44677 19.281C7.66175 19.066 7.66175 18.7183 7.44677 18.5033C7.23169 18.2882 6.88352 18.2888 6.66903 18.5033L6.7751 18.6093L6.66903 18.5033Z" fill="#24AA59" stroke="#24AA59" stroke-width="0.3"/>
<path d="M18.5503 19.2812L18.5503 19.2812L18.8331 19.564C18.9403 19.6711 19.0813 19.7251 19.222 19.7251C19.3626 19.7251 19.5036 19.6711 19.6108 19.564C19.8258 19.349 19.8258 19.0012 19.6108 18.7862L19.328 18.5034C19.113 18.2884 18.7653 18.2884 18.5503 18.5034C18.3353 18.7184 18.3353 19.0662 18.5503 19.2812Z" fill="#24AA59" stroke="#24AA59" stroke-width="0.3"/>
<path d="M7.16397 6.33936C6.94899 6.12438 6.60121 6.12438 6.38623 6.33936C6.17126 6.55434 6.17126 6.90211 6.38623 7.11709L6.66903 7.39989C6.77623 7.50709 6.91725 7.56102 7.0579 7.56102C7.19855 7.56102 7.33957 7.50709 7.44677 7.39989C7.66175 7.18491 7.66175 6.83714 7.44677 6.62216L7.16397 6.33936Z" fill="#24AA59" stroke="#24AA59" stroke-width="0.3"/>
</svg>
