<?xml version="1.0" encoding="UTF-8"?>
<svg width="120px" height="120px" viewBox="0 0 120 120" version="1.1" xmlns="http://www.w3.org/2000/svg" xmlns:xlink="http://www.w3.org/1999/xlink">
    <title>favicon</title>
    <g id="Page-1" stroke="none" stroke-width="1" fill="none" fill-rule="evenodd">
        <g id="favicon">
            <path d="M43.1530833,111.789036 C45.1243723,111.528959 47.118192,112.063202 48.6953397,113.274079 L55.437661,118.450594 C58.1284268,120.516469 61.8715733,120.516469 64.5623392,118.450594 L71.30466,113.274079 C72.881808,112.063202 74.8756275,111.528959 76.846917,111.789036 L85.274196,112.900869 C88.6374045,113.344585 91.8790642,111.473012 93.1763985,108.33853 L96.4271625,100.484376 C97.187574,98.6471512 98.6471512,97.187574 100.484376,96.4271625 L108.33853,93.1763985 C111.473012,91.8790642 113.344585,88.6374045 112.900869,85.274196 L111.789036,76.846917 C111.528959,74.8756275 112.063202,72.881808 113.274079,71.30466 L118.450594,64.5623392 C120.516469,61.8715733 120.516469,58.1284268 118.450594,55.437661 L113.274079,48.6953397 C112.063202,47.118192 111.528959,45.1243723 111.789036,43.1530833 L112.900869,34.7258043 C113.344585,31.3625956 111.473012,28.1209358 108.33853,26.8236014 L100.484376,23.5728374 C98.6471512,22.8124263 97.187574,21.352849 96.4271625,19.515624 L93.1763985,11.66147 C91.8790642,8.52698745 88.6374045,6.65541428 85.274196,7.09913108 L76.846917,8.2109637 C74.8756275,8.47104097 72.881808,7.93679865 71.30466,6.72592057 L64.5623392,1.5494058 C61.8715733,-0.5164686 58.1284268,-0.5164686 55.437661,1.5494058 L48.6953397,6.72592057 C47.118192,7.93679865 45.1243723,8.47104097 43.1530833,8.2109637 L34.7258043,7.09913108 C31.3625956,6.65541428 28.1209358,8.52698745 26.8236014,11.66147 L23.5728374,19.515624 C22.8124263,21.352849 21.352849,22.8124263 19.515624,23.5728374 L11.66147,26.8236014 C8.52698745,28.1209358 6.65541428,31.3625956 7.09913108,34.7258043 L8.2109637,43.1530833 C8.47104097,45.1243723 7.93679865,47.118192 6.72592057,48.6953397 L1.5494058,55.437661 C-0.5164686,58.1284268 -0.5164686,61.8715733 1.5494058,64.5623392 L6.72592057,71.30466 C7.93679865,72.881808 8.47104097,74.8756275 8.2109637,76.846917 L7.09913108,85.274196 C6.65541428,88.6374045 8.52698745,91.8790642 11.66147,93.1763985 L19.515624,96.4271625 C21.352849,97.187574 22.8124263,98.6471512 23.5728374,100.484376 L26.8236014,108.33853 C28.1209358,111.473012 31.3625956,113.344585 34.7258043,112.900869 L43.1530833,111.789036 Z" id="Star" fill="#1F6AED" fill-rule="nonzero"></path>
            <polyline id="Path-2" stroke="#FFFFFF" stroke-width="16" stroke-linecap="round" stroke-linejoin="round" points="37.5 60.75 54.7173913 78.75 82.5 45"></polyline>
        </g>
    </g>
</svg>