<?xml version="1.0" encoding="utf-8"?>
<!-- Generator: Adobe Illustrator 22.0.1, SVG Export Plug-In . SVG Version: 6.00 Build 0)  -->
<svg version="1.1" id="Слой_1" xmlns="http://www.w3.org/2000/svg" xmlns:xlink="http://www.w3.org/1999/xlink" x="0px" y="0px"
	 width="960px" height="872px" viewBox="0 0 960 872" style="enable-background:new 0 0 960 872;" xml:space="preserve">
<style type="text/css">
	.st0{fill:#455668;}
</style>
<g transform="translate(0.000000,872.000000) scale(0.100000,-0.100000)">
	<path class="st0" d="M2273,8663l-593-3l-24-38c-26-40-246-431-1046-1862c-287-514-528-945-536-957c-13-20,9-49,398-520
		C1606,3912,4048,966,4599,305c105-126,196-230,201-230c13,0,275,314,2156,2585c2616,3157,2585,3119,2570,3143
		c-8,12-302,537-654,1167s-707,1264-789,1410l-148,265l-40,7C7853,8660,3295,8669,2273,8663z M4648,8537c6-5,12-14,12-19
		c0-12-1118-1616-1551-2223c-234-330-268-371-292-362c-7,3-23,29-34,59c-348,886-814,2091-923,2382c-43,116-49,141-38,152
		s249,15,1353,22c737,5,1367,6,1400,4C4608,8549,4641,8543,4648,8537z M7317,8541c260-4,475-10,478-13c5-5-970-2532-996-2580
		c-19-36-44-17-130,100c-193,262-1739,2469-1747,2492C4918,8552,6575,8552,7317,8541z M1858,8040c201-512,844-2172,850-2193
		c4-17-44-17-1059-11c-1237,8-1382,11-1387,36c-3,16,203,391,844,1535c614,1095,574,1028,601,1001C1713,8401,1782,8235,1858,8040z
		 M8063,8174c190-338,754-1345,1034-1848c134-241,243-446,241-455c-3-14-27-17-163-22c-298-12-2285-20-2285-10s595,1546,859,2220
		c72,184,136,340,142,348c7,8,17,10,27,4C7926,8406,7992,8299,8063,8174z M4744,8267c9-117-7-2420-17-2434c-9-14-641-16-1398-4
		l-395,6l877,1254c482,689,882,1257,889,1261C4728,8367,4738,8348,4744,8267z M4948,8288c20-28,415-592,878-1252l841-1201l-396-6
		c-218-4-620-7-893-8c-464-1-498,0-507,17c-11,21-19,2472-8,2490C4880,8354,4910,8340,4948,8288z M2744,5700c27-27,119-279,618-1685
		C3936,2396,4502,784,4507,753c3-19,0-39-7-48c-19-22-66-18-90,8c-30,31-2065,2490-3952,4774c-87,105-158,196-158,202
		c0,5,8,15,18,21c12,7,370,10,1214,8C2580,5715,2731,5713,2744,5700z M9290,5705c10-12,9-20-4-40c-45-69-4051-4899-4119-4967
		c-18-18-49-14-68,8c-15,19-2,67,118,414c281,816,1609,4560,1623,4574c15,15,436,21,1556,24C9168,5720,9279,5718,9290,5705z
		 M4648,5693l93-6l-6-2381c-3-1310-8-2409-11-2444c-4-48-10-65-25-73c-32-17-55-2-77,50c-60,137-366,995-1254,3511
		c-507,1439-469,1327-454,1339c7,6,77,12,157,14C3276,5709,4537,5701,4648,5693z M6688,5688c12-15-125-405-1584-4523
		c-70-198-132-366-137-373c-6-7-22-12-36-10c-56,7-54-52-62,1388c-10,1689-11,3515-2,3523c3,4,412,7,908,7
		C6485,5700,6680,5697,6688,5688z"/>
</g>
</svg>
