<svg width="24" height="22" viewBox="0 0 24 22" fill="none" xmlns="http://www.w3.org/2000/svg">
<path d="M13.5629 17.5362L13.5628 17.5362C13.5492 17.537 13.5347 17.5377 13.5199 17.5377C13.1793 17.5377 12.8925 17.273 12.87 16.928C12.8466 16.5685 13.1189 16.2582 13.4782 16.2348C14.8801 16.1434 16.1773 15.8706 17.117 15.48V11.9049L12.6858 14.4273L13.5629 17.5362ZM13.5629 17.5362C14.888 17.4496 16.1128 17.2196 17.1167 16.874M13.5629 17.5362L17.1167 16.874M17.1167 16.874V18.5323C16.8683 18.624 16.6905 18.8619 16.6905 19.1428V21.0821C16.6905 21.4425 16.9823 21.7343 17.3424 21.7343C17.5068 21.7343 17.6552 21.6724 17.7687 21.5728C17.8824 21.6724 18.0307 21.7343 18.1951 21.7343C18.5553 21.7343 18.847 21.4425 18.847 21.0821V19.1428C18.847 18.8615 18.669 18.624 18.4206 18.5321V10.6964C18.4206 10.462 18.2949 10.2457 18.0915 10.1298L18.0915 10.1298L12.8393 7.13981C12.5261 6.96151 12.1277 7.07074 11.9499 7.38385L17.1167 16.874ZM16.5273 10.7397L12.1939 8.27299C12.1939 8.27299 12.1939 8.27298 12.1939 8.27298C11.8808 8.09487 11.7718 7.69684 11.9498 7.38392L16.5273 10.7397ZM16.5273 10.7397L12.3631 13.1101L2.87019 7.70639L12.3631 2.30243L17.7064 5.34405L17.7064 5.34406C18.0195 5.52215 18.4175 5.41273 18.5958 5.09981L18.5958 5.09975C18.7739 4.78674 18.6645 4.3887 18.3515 4.21062C18.3515 4.21062 18.3515 4.21061 18.3515 4.21061L12.6857 0.985386C12.6856 0.985383 12.6856 0.985381 12.6856 0.985378M16.5273 10.7397L12.6856 0.985378M12.6856 0.985378C12.486 0.871705 12.2405 0.871365 12.0405 0.985411L1.22936 7.13981L1.22933 7.13983M12.6856 0.985378L1.22933 7.13983M1.22933 7.13983C1.02598 7.25568 0.9 7.4722 0.9 7.7064C0.9 7.94088 1.02601 8.15713 1.22933 8.27296L1.22936 8.27298M1.22933 7.13983L1.22936 8.27298M1.22936 8.27298L12.0405 14.4274L12.0407 14.4275M1.22936 8.27298L12.0407 14.4275M12.0407 14.4275C12.1406 14.4841 12.2517 14.5128 12.3631 14.5128C12.4741 14.5128 12.5857 14.4845 12.6856 14.4274L12.0407 14.4275Z" fill="#24AA59" stroke="#24AA59" stroke-width="0.2"/>
<path d="M21.8559 7.70659L19.709 6.48412L19.709 6.4841L19.7585 6.3972C19.4934 6.24644 19.4011 5.90944 19.5519 5.64443C19.7026 5.37942 20.0394 5.28656 20.3049 5.43785L21.8559 7.70659ZM21.8559 7.70659L20.3579 8.55923L20.3579 8.55925C20.0449 8.73762 19.9359 9.13565 20.1139 9.44862L20.114 9.44869C20.2344 9.66005 20.4546 9.77826 20.6813 9.77826C20.7905 9.77826 20.9015 9.75079 21.0033 9.69297L21.0033 9.69292L23.4966 8.27372C23.4967 8.27372 23.4967 8.27371 23.4967 8.27371C23.7004 8.15783 23.826 7.94129 23.826 7.70699L21.8559 7.70659ZM23.4966 7.13997L20.3544 5.35096L23.726 7.70686C23.7263 7.50836 23.6199 7.325 23.4472 7.22692L23.4967 7.14002L23.4967 7.14001C23.4966 7.13999 23.4966 7.13998 23.4966 7.13997Z" fill="#24AA59" stroke="#24AA59" stroke-width="0.2"/>
<path d="M9.69715 16.7308L9.69714 16.7308C9.63181 17.0374 9.36125 17.2471 9.05993 17.2471L9.69715 16.7308ZM9.69715 16.7308C9.77202 16.3786 9.54741 16.0324 9.19503 15.9572L9.195 15.9572M9.69715 16.7308L9.195 15.9572M9.195 15.9572C8.20578 15.7466 7.45802 15.454 6.96032 15.1524C6.71131 15.0015 6.52808 14.8502 6.40823 14.7086C6.28753 14.566 6.23778 14.4414 6.23778 14.3416V13.2537M9.195 15.9572L4.93418 13.2534M4.93418 13.2534C4.93418 12.8933 5.2259 12.6012 5.58611 12.6012C5.94633 12.6012 6.23809 12.8933 6.23778 13.2537M4.93418 13.2534V14.3413M4.93418 13.2534V14.3413M6.23778 13.2537L6.13778 13.2536M6.23778 13.2537V13.2536H6.13778M6.13778 13.2536C6.13804 12.9484 5.89103 12.7012 5.58611 12.7012C5.28119 12.7012 5.03418 12.9484 5.03418 13.2534V14.3413C5.03418 15.5873 6.45939 16.6054 8.94438 17.1349L6.13778 14.3416V13.2536ZM4.93418 14.3413C4.93418 15.0075 5.31637 15.6003 5.99928 16.0882M4.93418 14.3413L5.99928 16.0882M5.99928 16.0882C6.6815 16.5755 7.67366 16.9663 8.92346 17.2327L5.99928 16.0882Z" fill="#24AA59" stroke="#24AA59" stroke-width="0.2"/>
<path d="M10.5967 16.3891C10.4748 16.5107 10.4054 16.6799 10.4054 16.85C10.4054 17.0224 10.4753 17.189 10.5965 17.3108L10.5967 17.311C10.7186 17.4326 10.8853 17.5022 11.0576 17.5022C11.2298 17.5022 11.3966 17.4326 11.5182 17.311C11.6402 17.189 11.7095 17.0222 11.7095 16.85C11.7095 16.6781 11.6399 16.5108 11.5182 16.3891C11.275 16.1458 10.84 16.1458 10.5967 16.3891ZM10.5967 16.3891C10.5967 16.389 10.5967 16.389 10.5967 16.389L10.6673 16.4598L10.5966 16.3891C10.5967 16.3891 10.5967 16.3891 10.5967 16.3891Z" fill="#24AA59" stroke="#24AA59" stroke-width="0.2"/>
</svg>
