<svg width="12" height="12" viewBox="0 0 12 12" fill="none" xmlns="http://www.w3.org/2000/svg">
<path d="M0.353634 0.353478C0.548896 0.158216 0.865479 0.158216 1.06074 0.353478L11.6673 10.9601C11.8626 11.1553 11.8626 11.4719 11.6673 11.6672C11.4721 11.8624 11.1555 11.8624 10.9602 11.6672L0.353634 1.06058C0.158372 0.865322 0.158372 0.54874 0.353634 0.353478Z" fill="#222222"/>
<path d="M11.6672 0.353478C11.4719 0.158216 11.1553 0.158216 10.9601 0.353478L0.353478 10.9601C0.158216 11.1553 0.158216 11.4719 0.353478 11.6672C0.54874 11.8624 0.865322 11.8624 1.06058 11.6672L11.6672 1.06058C11.8624 0.865322 11.8624 0.54874 11.6672 0.353478Z" fill="#222222"/>
</svg>
