<?xml version="1.0" encoding="utf-8"?>
<!-- Generator: Adobe Illustrator 22.0.1, SVG Export Plug-In . SVG Version: 6.00 Build 0)  -->
<svg version="1.1" id="Слой_1" xmlns="http://www.w3.org/2000/svg" xmlns:xlink="http://www.w3.org/1999/xlink" x="0px" y="0px"
	 width="799px" height="935px" viewBox="0 0 799 935" style="enable-background:new 0 0 799 935;" xml:space="preserve">
<style type="text/css">
	.st0{fill:#24AA59;}
</style>
<g transform="translate(0.000000,935.000000) scale(0.100000,-0.100000)">
	<path class="st0" d="M3726,9119c-544-70-991-336-1259-749c-250-387-348-845-334-1570c7-356,33-573,102-860
		c194-799,643-1306,1294-1461c137-33,286-49,466-49c630,0,1102,243,1431,735c278,418,426,1010,428,1710c1,591-62,955-225,1295
		c-91,190-173,305-318,451c-278,277-618,438-1044,494C4138,9131,3842,9134,3726,9119z M4295,8807c437-83,751-273,956-581
		c177-264,258-529,294-966c49-597-20-1164-194-1603c-158-398-429-688-768-825c-185-74-363-105-603-104c-541,2-942,219-1210,657
		c-285,465-405,1223-319,2015c88,809,523,1296,1264,1415C3831,8833,4180,8829,4295,8807z"/>
	<path class="st0" d="M2624,4207c-22-13-67-42-100-64c-138-93-436-257-644-353c-269-124-509-215-775-291c-221-64-353-134-485-256
		c-157-145-274-360-335-616c-49-203-59-325-60-692c0-349,7-449,45-633c26-131,48-170,117-215c89-58,520-268,691-337
		c681-272,1440-443,2267-512c254-21,1117-18,1365,5c919,85,1701,279,2430,604c258,115,498,247,530,294c27,37,54,146,76,305
		c23,164,27,738,6,904c-57,450-196,750-435,938c-137,108-226,149-478,223c-458,134-938,354-1374,630c-117,75-146,89-181,89
		c-77,0-145-66-146-142c-2-71,24-104,138-180c427-283,1008-549,1528-699c191-55,259-93,371-204c101-101,143-165,193-298
		c72-192,104-433,103-793c0-215-10-363-33-513c-13-87,3-75-253-201c-747-369-1634-594-2645-672c-247-19-897-16-1150,5
		c-926,78-1752,283-2479,616c-133,62-301,148-333,173c-22,17-45,170-58,401c-12,197,0,513,25,682c46,306,159,534,329,661
		c93,70,165,102,350,156c450,130,952,356,1391,626c216,133,235,152,235,241C2850,4202,2728,4266,2624,4207z"/>
</g>
</svg>
