<?xml version="1.0" encoding="utf-8"?>
<!-- Generator: Adobe Illustrator 22.0.1, SVG Export Plug-In . SVG Version: 6.00 Build 0)  -->
<svg version="1.1" id="Слой_1" xmlns="http://www.w3.org/2000/svg" xmlns:xlink="http://www.w3.org/1999/xlink" x="0px" y="0px"
	 width="883px" height="883px" viewBox="0 0 883 883" style="enable-background:new 0 0 883 883;" xml:space="preserve">
<style type="text/css">
	.st0{fill:#24AA59;}
</style>
<g transform="translate(0.000000,883.000000) scale(0.100000,-0.100000)">
	<path class="st0" d="M4090,8643c-984-74-1911-492-2624-1183C828,6842,405,6052,246,5180c-53-292-61-390-61-770c1-383,13-523,71-820
		c131-667,425-1297,853-1829l75-94l-49-95c-178-342-431-619-683-746c-167-85-241-252-182-410c27-72,93-146,156-177
		c69-33,207-49,421-49c294,0,508,34,782,125c176,58,441,190,606,300l130,87l145-72c496-249,965-383,1514-436c234-22,704-15,921,15
		c510,69,933,200,1380,425c232,117,432,240,620,381c884,663,1472,1622,1649,2690c45,271,51,353,51,720c-1,377-13,520-71,815
		c-255,1295-1120,2412-2319,2995c-445,216-934,352-1439,400C4672,8649,4230,8654,4090,8643z M4855,8306c875-107,1645-470,2275-1073
		c339-324,642-750,835-1172c497-1085,482-2310-40-3376c-189-388-426-717-745-1035c-329-330-666-569-1075-766
		c-427-204-899-333-1370-374c-154-13-496-13-650,0c-404,35-836,142-1210,302c-124,53-187,84-433,214c-96,51-131,46-234-34
		c-245-191-551-344-836-417c-191-49-257-56-527-62l-260-5l155,113c311,227,513,473,707,859c64,128,73,152,73,200
		c0,72-23,118-102,210c-476,551-792,1275-895,2050c-23,169-26,733-5,900c113,918,494,1712,1122,2340c555,555,1230,917,2005,1074
		c120,24,396,62,510,70C4286,8332,4730,8321,4855,8306z"/>
	<path class="st0" d="M2750,4608c-119-61-156-216-76-321c88-118,269-115,353,6c25,36,28,49,28,122s-3,86-28,122
		C2967,4624,2844,4655,2750,4608z"/>
	<path class="st0" d="M4308,4602c-27-15-60-45-75-67c-25-35-28-49-28-120s3-85,28-121c83-122,264-125,354-7
		C4725,4470,4506,4717,4308,4602z"/>
	<path class="st0" d="M5900,4619c-76-31-140-123-140-205c0-59,45-142,98-179c35-24,55-30,110-33c61-3,72-1,122,30
		c140,85,140,281,0,366c-44,26-64,32-110,31C5950,4629,5914,4624,5900,4619z"/>
</g>
</svg>
