<?xml version="1.0" encoding="utf-8"?>
<!-- Generator: Adobe Illustrator 22.0.1, SVG Export Plug-In . SVG Version: 6.00 Build 0)  -->
<svg version="1.1" id="Слой_1" xmlns="http://www.w3.org/2000/svg" xmlns:xlink="http://www.w3.org/1999/xlink" x="0px" y="0px"
	 width="915px" height="916px" viewBox="0 0 915 916" style="enable-background:new 0 0 915 916;" xml:space="preserve">
<style type="text/css">
	.st0{fill:#24AA59;}
</style>
<g transform="translate(0.000000,916.000000) scale(0.100000,-0.100000)">
	<path class="st0" d="M4988,8884c-36-19-58-63-58-114c0-32,7-48,33-75c31-33,40-36,206-71c918-189,1705-632,2355-1323
		c556-593,941-1345,1101-2154c14-71,29-137,35-147c34-63,133-82,188-35c50,42,57,71,38,177c-46,256-151,620-251,873
		c-60,151-202,446-284,590c-383,671-967,1272-1633,1681c-445,273-960,477-1476,584C5083,8903,5028,8906,4988,8884z"/>
	<path class="st0" d="M1735,8383c-112-16-241-70-350-148c-33-24-236-220-451-437c-413-416-466-479-548-651c-183-387-165-953,53-1606
		c283-847,775-1691,1473-2528c343-411,776-842,1174-1169c973-799,2152-1403,3024-1548c619-103,1041,1,1367,337
		c44,45,219,224,390,397c175,178,329,343,353,379c95,142,134,265,134,426c0,165-33,267-130,410c-71,105-1196,1241-1293,1305
		c-144,96-283,136-440,127c-154-9-281-59-416-162c-38-30-225-209-414-399l-345-345l-185,96c-562,289-1143,777-1696,1423
		c-196,229-390,499-514,717c-55,98-161,315-161,331c0,6,26,33,58,60c106,94,651,647,696,707c94,128,144,257,153,401
		c7,111-8,204-49,303c-64,154-99,193-687,784c-306,307-590,586-631,619C2135,8346,1926,8409,1735,8383z M1973,8109
		c34-11,91-40,127-64c84-56,1181-1156,1233-1236c104-161,112-313,25-483c-26-51-97-126-424-453c-216-215-401-407-410-425
		c-27-50-22-147,10-232c40-104,172-355,260-494c371-584,996-1246,1601-1695c252-187,412-283,797-480c74-38,161-41,228-7
		c30,15,174,151,435,410c355,352,396,390,462,422c141,70,262,72,403,6c60-28,115-80,663-627c329-328,614-620,634-650
		c105-157,115-310,31-481c-39-81-54-98-347-395c-168-171-337-345-376-386c-137-146-299-244-491-296c-92-25-113-27-309-27
		c-233,0-355,15-616,80c-827,203-1935,819-2784,1549c-798,686-1526,1585-2008,2480c-275,510-492,1092-568,1521
		c-27,154-37,456-19,587c24,179,88,337,196,479c81,107,770,793,844,839C1696,8130,1847,8152,1973,8109z"/>
	<path class="st0" d="M4924,7271c-47-29-64-59-64-114c0-42,5-54,33-81c28-29,47-35,167-60c737-151,1396-660,1738-1342
		c99-197,186-454,222-649c16-88,32-121,73-145c65-40,148-15,181,55c21,43,15,91-34,285c-97,383-277,747-526,1060
		c-95,119-340,362-454,450c-232,179-519,340-770,430c-135,49-389,116-475,125C4965,7290,4950,7288,4924,7271z"/>
</g>
</svg>
