<svg width="23" height="23" viewBox="0 0 23 23" fill="none" xmlns="http://www.w3.org/2000/svg">
<path d="M11.5003 0.0110856C6.7899 0.0110856 2.31692 -0.407601 0.608421 3.9737C-0.0972928 5.78325 0.00519157 8.13334 0.00519157 11.4984C0.00519157 14.4512 -0.0895091 17.2265 0.608421 19.0218C2.31303 23.4057 6.82234 22.9857 11.4977 22.9857C16.0083 22.9857 20.659 23.4549 22.3883 19.0218C23.0953 17.1941 22.9915 14.879 22.9915 11.4984C22.9915 7.01079 23.2393 4.11369 21.0612 1.9386C18.8558 -0.265014 15.8734 0.0110856 11.4951 0.0110856H11.5003ZM10.4703 2.08118C20.2958 2.06563 21.5463 0.974195 20.8562 16.1363C20.611 21.4989 16.5246 20.9104 11.5016 20.9104C2.34287 20.9104 2.07952 20.6486 2.07952 11.4932C2.07952 2.23155 2.80599 2.08637 10.4703 2.07859V2.08118ZM17.6364 3.98796C16.8749 3.98796 16.2574 4.60497 16.2574 5.36586C16.2574 6.12675 16.8749 6.74377 17.6364 6.74377C18.3979 6.74377 19.0154 6.12675 19.0154 5.36586C19.0154 4.60497 18.3979 3.98796 17.6364 3.98796ZM11.5003 5.59918C8.24025 5.59918 5.59771 8.24093 5.59771 11.4984C5.59771 14.7558 8.24025 17.3963 11.5003 17.3963C14.7603 17.3963 17.4016 14.7558 17.4016 11.4984C17.4016 8.24093 14.7603 5.59918 11.5003 5.59918ZM11.5003 7.66928C16.5661 7.66928 16.5726 15.3275 11.5003 15.3275C6.43575 15.3275 6.42797 7.66928 11.5003 7.66928Z" fill="url(#paint0_linear_646_11)"/>
<defs>
<linearGradient id="paint0_linear_646_11" x1="22.9166" y1="0.0559037" x2="0.018138" y2="22.9725" gradientUnits="userSpaceOnUse">
<stop stop-color="#A3349B"/>
<stop offset="0.53125" stop-color="#D8000D"/>
<stop offset="1" stop-color="#F8D825"/>
</linearGradient>
</defs>
</svg>
