<?xml version="1.0" encoding="utf-8"?>
<!-- Generator: Adobe Illustrator 22.1.0, SVG Export Plug-In . SVG Version: 6.00 Build 0)  -->
<svg version="1.1" id="Слой_1" xmlns="http://www.w3.org/2000/svg" xmlns:xlink="http://www.w3.org/1999/xlink" x="0px" y="0px"
	 viewBox="0 0 1687 158.4" style="enable-background:new 0 0 1687 158.4;" xml:space="preserve">
<g transform="translate(0.000000,497.000000) scale(0.100000,-0.100000)">
	<path d="M651,4924c-10-24-161-364-335-756S0,3453,0,3450c0-2,43-3,96-2l96,3l86,203l87,202h305h306l84-205l85-205h94
		c92,0,93,0,88,22c-12,44-642,1498-650,1498C673,4966,661,4947,651,4924z M758,4371c44-104,96-227,116-272l35-83H670H431l106,243
		c57,133,111,257,119,276s16,32,18,30S714,4476,758,4371z"/>
	<path d="M10740,4208v-762h85h85l2,553l3,552l560-582c308-320,563-582,568-583c4,0,7,342,7,760v760h-85h-85l-2-555l-3-555l-532,552
		c-292,304-548,569-567,587l-36,35V4208z"/>
	<path d="M14250,4208v-762h85h85l2,553l3,552l560-582c308-320,563-582,568-583c4,0,7,342,7,760v760h-85h-85l-2-555l-3-555l-532,552
		c-292,304-548,569-567,587l-36,35V4208z"/>
	<path d="M9405,4920c-302-49-542-260-617-543c-28-107-28-296,0-402c55-205,196-376,387-470c125-61,187-74,355-74c124,0,156,4,220,23
		c297,94,493,322,530,619c48,379-173,721-530,823C9676,4917,9475,4931,9405,4920z M9645,4751c110-23,208-77,290-159
		c235-236,235-596,0-831c-314-315-825-186-971,245c-14,41-19,84-19,170c0,126,12,177,69,285c45,88,155,193,246,239
		C9388,4762,9512,4779,9645,4751z"/>
	<path d="M1520,4821v-85h175h175v-645v-645h85h85v645v645h175h175v85v85h-435h-435V4821z"/>
	<path d="M2770,4176v-730h385h385v85v85h-300h-300v275v275h290h290v80v80h-290h-290v205v205h300h300v85v85h-385h-385V4176z"/>
	<path d="M4000,4176v-730h285h285v85v85h-200h-200v645v645h-85h-85V4176z"/>
	<path d="M4960,4176v-730h85h85v730v730h-85h-85V4176z"/>
	<path d="M5670,4176v-730h385h385v85v85h-300h-300v275v275h290h290v80v80h-290h-290v205v205h300h300v85v85h-385h-385V4176z"/>
	<path d="M6890,4178v-732h85h85v320c0,298,1,320,18,320c11-1,94-112,240-320l223-320h100c61,0,99,4,99,10s-101,151-224,323l-224,312
		l61,16c78,19,118,40,173,91c87,81,131,202,120,335c-15,183-111,297-292,343c-60,16-126,22-271,27l-193,6V4178z M7308,4721
		c136-41,203-187,149-327c-39-100-130-149-289-156l-108-5v252v251h98C7218,4736,7277,4730,7308,4721z"/>
	<path d="M12590,4176v-730h285h285v85v85h-200h-200v645v645h-85h-85V4176z"/>
	<path d="M13540,4176v-730h85h85v730v730h-85h-85V4176z"/>
	<path d="M16100,4176v-730h385h385v85v85h-300h-300v275v275h290h290v80v80h-290h-290v205v205h300h300v85v85h-385h-385V4176z"/>
	<path d="M8155,3624c-31-28-38-41-39-74c-2-80,70-137,145-115c52,16,79,53,79,107c0,62-39,104-102,111
		C8196,3658,8189,3655,8155,3624z"/>
</g>
</svg>
