<?xml version="1.0" encoding="utf-8"?>
<!-- Generator: Adobe Illustrator 22.0.1, SVG Export Plug-In . SVG Version: 6.00 Build 0)  -->
<svg version="1.1" id="Слой_1" xmlns="http://www.w3.org/2000/svg" xmlns:xlink="http://www.w3.org/1999/xlink" x="0px" y="0px"
	 width="718px" height="911px" viewBox="0 0 718 911" style="enable-background:new 0 0 718 911;" xml:space="preserve">
<style type="text/css">
	.st0{fill:#455668;}
</style>
<g transform="translate(0.000000,911.000000) scale(0.100000,-0.100000)">
	<path class="st0" d="M3050,8825v-205h-420h-420v-265v-265h115h115v-190v-190h-260h-260v210v210h-495H930v-210v-210H505H80v-260
		v-259l113-3l112-3V4145V1105l-112-3l-113-3V805V510l423-2l422-3l3-212l2-213h495h495l2,213l3,212l563,3l562,2V295V80h500h500v215
		v215l603-2l602-3l3-213l2-212h495h495l2,212l3,213l423,3l422,2v295v294l-112,3l-113,3v3040v3040l113,3l112,3v259v260h-425h-425v210
		v210h-495h-495v-210v-210h-260h-260v190v190h80h80v265v265h-425h-425v205v205h-500h-500V8825z M3940,8770v-150h-390h-390v150v150
		h390h390V8770z M4788,8358l-3-153l-1232-3l-1233-2v155v155h1235h1236L4788,8358z M4638,4598l-3-3493H3590H2545l-3,3493l-2,3492
		h1050h1050L4638,4598z M1818,7873l-3-148h-390h-390l-3,148l-3,147h396h396L1818,7873z M6148,7873l-3-148h-390h-390l-3,148l-3,147
		h396h396L6148,7873z M2435,7445v-150H1315H195l-3,153l-3,152l1123-2l1123-3V7445z M6988,7448l-3-153H5865H4745l-3,140
		c-1,76,0,145,2,152c4,11,217,13,1126,13h1121L6988,7448z M2435,4145V1105H1425H415l-3,3030c-1,1667,0,3036,3,3043
		c3,10,211,12,1012,10l1008-3V4145z M6765,4145V1105H5755H4745l-3,3030c-1,1667,0,3036,3,3043c3,10,211,12,1012,10l1008-3V4145z
		 M2210,805V620H1200H190v185v185h1010h1010V805z M4860,805V620H3590H2320v185v185h1270h1270V805z M6990,805V620H5980H4970v185v185
		h1010h1010V805z M1818,343l-3-148h-390h-390l-3,148l-3,147h396h396L1818,343z M3940,340V190h-390h-390v150v150h390h390V340z
		 M6148,343l-3-148h-390h-390l-3,148l-3,147h396h396L6148,343z"/>
</g>
</svg>
