<?xml version="1.0" encoding="utf-8"?>
<!-- Generator: Adobe Illustrator 22.0.1, SVG Export Plug-In . SVG Version: 6.00 Build 0)  -->
<svg version="1.1" id="Слой_1" xmlns="http://www.w3.org/2000/svg" xmlns:xlink="http://www.w3.org/1999/xlink" x="0px" y="0px"
	 width="989px" height="990px" viewBox="0 0 989 990" style="enable-background:new 0 0 989 990;" xml:space="preserve">
<style type="text/css">
	.st0{fill:#455668;}
</style>
<g transform="translate(0.000000,990.000000) scale(0.100000,-0.100000)">
	<path class="st0" d="M4710,9805c-106-24-208-63-320-123c-263-141-313-159-475-172c-83-7-150-6-275,6c-254,24-434-2-628-92
		c-164-75-291-181-427-354c-87-111-174-197-251-251c-73-50-220-115-339-150c-309-91-505-230-662-471c-61-94-93-170-148-348
		c-56-183-80-240-140-330c-64-96-124-160-234-250c-106-86-217-198-274-276c-51-71-122-223-153-329c-36-124-44-329-19-500
		c35-240,7-375-135-660c-55-110-112-240-127-290c-26-85-27-102-27-285c-1-158,3-207,17-260c25-91,75-204,152-345
		c74-136,101-202,121-295c17-81,19-295,3-451c-10-95-10-138,0-216c42-322,183-560,460-777c221-174,311-309,396-596
		c44-147,77-223,137-317c157-242,353-382,663-474c287-85,417-167,586-371c213-256,370-366,629-439c92-25,123-26,620-17
		c244,4,259,0,525-132c261-130,332-151,530-157c255-8,385,26,655,174c189,103,260,124,435,131c81,3,201-1,284-8c167-16,270-7,416,35
		c242,69,419,195,601,426c175,223,277,290,621,404c245,81,386,168,517,319c128,147,183,254,252,489c75,259,166,406,332,540
		c193,155,319,299,391,443c89,180,116,316,106,532c-5,87-8,236-9,332c-1,217,9,254,130,487c137,264,171,398,161,637
		c-9,207-42,315-164,534c-140,251-166,382-138,681c19,203,11,335-30,476c-69,236-185,405-393,572c-200,160-269,240-347,404
		c-24,52-58,143-75,202c-43,150-88,252-156,354c-105,158-278,306-445,381c-35,16-133,50-216,76c-179,54-239,79-330,139
		c-94,61-159,122-249,233c-182,227-335,339-563,414c-126,41-227,53-378,46c-384-18-440-18-524-1c-100,20-171,49-309,126
		c-214,119-318,149-550,155C4818,9819,4758,9816,4710,9805z M5150,9654c48-12,143-52,265-114c326-164,476-194,778-154
		c397,52,684-59,930-360c212-261,371-370,662-451c267-75,461-201,582-377c73-106,98-161,163-358c32-97,73-206,90-241
		c76-149,174-263,340-394c168-133,241-217,316-367c24-48,54-122,66-165c24-83,25-119,17-583c-3-174-1-191,24-285
		c15-56,48-141,75-195c27-52,74-144,106-205c70-138,96-235,103-387c6-132-6-232-42-337c-23-67-39-103-134-286
		c-59-113-95-219-116-342c-19-110-19-204,1-345c20-144,14-321-15-433c-29-110-109-266-181-353c-34-40-95-100-138-135
		c-122-98-258-234-312-313c-70-102-112-196-160-359c-71-239-165-407-297-524c-118-106-248-172-498-251c-243-78-405-191-578-408
		c-52-65-125-145-161-179c-193-173-456-260-711-232c-193,20-336,22-431,5c-114-19-242-63-331-111c-304-166-351-183-543-192
		c-221-10-349,21-560,136c-281,154-470,193-748,156c-301-40-525,4-733,146c-89,60-141,110-225,215c-142,177-283,297-436,369
		c-40,19-142,55-227,80c-181,55-236,78-328,138c-91,59-155,118-223,202c-79,100-131,206-190,390c-103,316-201,459-450,656
		c-196,155-314,324-366,524c-19,73-21,137-13,575c3,174,1,191-24,285c-16,61-49,143-84,210c-159,309-164,320-184,421
		c-17,81-20,123-16,234c7,190,36,285,153,499c134,247,177,467,139,726c-26,183-16,351,30,490c53,159,169,328,297,431
		c290,233,389,374,479,679c69,233,145,374,268,496c124,123,233,184,456,254c323,101,460,193,650,435c138,175,225,248,388,325
		c176,83,176,83,722,74c180-3,195-1,288,24c98,26,230,86,382,172c82,46,198,88,289,105C4836,9684,5064,9675,5150,9654z"/>
	<path class="st0" d="M6018,7278c-47-71-1037-2021-1781-3505l-552-1102l24-25c28-30,61-33,83-8c32,35,234,427,976,1887
		c1016,2002,1362,2689,1362,2704c0,5-12,23-26,40C6073,7306,6038,7309,6018,7278z"/>
	<path class="st0" d="M3395,7056c-5-2-44-12-85-21c-211-48-334-154-399-343l-26-77v-615c0-681-2-663,67-792c65-122,212-218,387-253
		c122-25,378-17,476,15c203,65,308,164,371,350c18,51,19,95,19,675c0,573-1,625-18,680c-58,189-181,303-386,356
		c-55,15-119,22-236,25C3477,7058,3401,7058,3395,7056z M3744,6964c134-33,235-114,298-240l42-85l9-187c5-103,6-378,3-612
		c-6-460-10-499-63-590c-65-110-203-205-332-230c-69-13-218-13-301,1c-141,22-286,122-344,237c-52,102-56,137-62,557
		c-7,491,5,786,36,867c44,117,154,224,275,270C3406,6990,3614,6995,3744,6964z"/>
	<path class="st0" d="M5995,4885c-191-54-300-130-360-252c-61-125-59-96-63-737c-2-384,1-613,7-660c14-92,76-219,136-280
		c58-57,128-97,235-132c82-27,93-28,280-29c216,0,253,7,386,70c125,60,215,171,261,320c17,55,18,106,18,665s-1,610-18,665
		c-46,150-135,259-259,319c-116,55-174,67-363,71C6096,4910,6079,4908,5995,4885z M6410,4820c168-32,329-189,360-350
		c14-74,15-1160,1-1230c-38-191-183-327-391-366c-101-20-265-14-350,11c-138,42-240,127-301,250c-30,62-32,72-41,247
		c-6,101-8,381-5,623c5,402,7,445,25,502c47,148,162,260,317,309C6074,4832,6335,4834,6410,4820z"/>
</g>
</svg>
