<?xml version="1.0" encoding="utf-8"?>
<!-- Generator: Adobe Illustrator 22.1.0, SVG Export Plug-In . SVG Version: 6.00 Build 0)  -->
<svg version="1.1" id="Слой_1" xmlns="http://www.w3.org/2000/svg" xmlns:xlink="http://www.w3.org/1999/xlink" x="0px" y="0px"
	 viewBox="0 0 53 28" style="enable-background:new 0 0 53 28;" xml:space="preserve">
<style type="text/css">
	.st0{fill:#FFFFFF;}
</style>
<path class="st0" d="M10.8,27.5c6.7,0,10.9-6.4,10.9-13.7C21.7,6.3,17.6,0,10.9,0C4.2,0,0,6.4,0,13.7C0,21.1,4.2,27.5,10.8,27.5z
	 M10.9,26.2c-5.7,0-9.3-6-9.3-12.4c0-6.5,3.5-12.4,9.2-12.4s9.3,6,9.3,12.4C20.1,20.2,16.6,26.2,10.9,26.2z"/>
<path class="st0" d="M29,27h2L49.7,0.5h-2L29,27z M47.2,27.3c3.5,0,5.8-3.2,5.8-6.8s-2.3-6.8-5.7-6.8c-3.5,0-5.8,3.2-5.8,6.8
	C41.5,24.1,43.7,27.3,47.2,27.3z M47.3,26.3C45,26.3,43,24,43,20.7c0-3.1,1.8-5.7,4.2-5.7c2.3,0,4.3,2.4,4.3,5.7
	C51.5,23.9,49.8,26.3,47.3,26.3z M32,13.7c3.5,0,5.8-3.2,5.8-6.8c0-3.6-2.3-6.8-5.7-6.8c-3.5,0-5.8,3.2-5.8,6.8
	C26.2,10.6,28.5,13.7,32,13.7z M32.1,12.5c-2.3,0-4.2-2.3-4.2-5.6c0-3.1,1.7-5.6,4.2-5.6c2.3,0,4.2,2.4,4.2,5.6
	C36.2,10.1,34.5,12.5,32.1,12.5z"/>
</svg>
