<svg width="812" height="369" viewBox="0 0 812 369" fill="none" xmlns="http://www.w3.org/2000/svg">
<path d="M1.99971 33.5C-6.23604 28.1754 64.1957 -8.81466 97.7818 25.441C97.7818 25.441 137.148 43.8689 138.413 15.0376C139.678 -13.7936 209 11.9997 209 11.9997" stroke="black" stroke-linecap="round" stroke-dasharray="3 3"/>
<path d="M314.708 16.669C299.708 18.5003 399.818 97.6424 394.468 36.9475C392.354 12.9675 417.768 4.479 442.5 14.7397C467.231 25.0003 489.5 29.1867 506 14.7395C522.5 0.292337 516.53 50.7172 541.708 59.1562" stroke="black" stroke-linecap="round" stroke-dasharray="3 3"/>
<path d="M618.5 22C620.211 15.8058 720.854 49 702 66.5C683.146 84 685.512 9.82793 720.854 18.0768C756.196 26.3257 808 8.5 808 8.5" stroke="black" stroke-linecap="round" stroke-dasharray="3 3"/>
<path d="M7 305.47C8.63164 299.559 102 292.441 132.5 305.47C163 318.5 150.953 352.524 114.24 330.688C77.527 308.851 59 347.833 106.5 358.93C154 370.027 213.5 348 213.5 348" stroke="black" stroke-linecap="round" stroke-dasharray="3 3"/>
<path d="M313.175 344.34C351.219 338.221 434.934 374.711 410.771 328.643C386.607 282.576 472.5 318.715 512.168 312.335" stroke="black" stroke-linecap="round" stroke-dasharray="3 3"/>
<path d="M600 305.499C599.531 307.421 701 404 718.86 330.333C736.721 256.666 773.726 325.093 808.983 321.726" stroke="black" stroke-linecap="round" stroke-dasharray="3 3"/>
</svg>
