<svg width="559" height="254" viewBox="0 0 559 254" fill="none" xmlns="http://www.w3.org/2000/svg">
<path d="M1.65648 23.1732C-4.01285 19.5079 44.471 -5.95535 67.591 17.6256C67.591 17.6256 94.6896 30.311 95.5605 10.4641C96.4315 -9.38279 144.151 8.37283 144.151 8.37283" stroke="black" stroke-linecap="round" stroke-dasharray="3 3"/>
<path d="M216.919 11.5835C206.593 12.8441 275.507 67.324 271.824 25.5428C270.369 9.03542 287.863 3.19209 304.888 10.2553C321.913 17.3186 337.242 20.2004 348.601 10.2552C359.959 0.310074 355.849 35.0216 373.181 40.8308" stroke="black" stroke-linecap="round" stroke-dasharray="3 3"/>
<path d="M426.043 15.258C427.221 10.994 496.501 33.8443 483.523 45.8909C470.544 57.9376 472.172 6.87897 496.501 12.5573C520.83 18.2357 556.491 5.96484 556.491 5.96484" stroke="black" stroke-linecap="round" stroke-dasharray="3 3"/>
<path d="M5.09766 210.391C6.22085 206.322 70.4938 201.422 91.4894 210.392C112.485 219.361 104.192 242.782 78.9196 227.751C53.647 212.719 40.8934 239.553 73.5915 247.192C106.29 254.831 147.248 239.668 147.248 239.668" stroke="black" stroke-linecap="round" stroke-dasharray="3 3"/>
<path d="M215.862 237.147C242.051 232.935 299.679 258.054 283.045 226.342C266.412 194.63 325.539 219.507 352.846 215.115" stroke="black" stroke-linecap="round" stroke-dasharray="3 3"/>
<path d="M413.31 210.413C412.987 211.736 482.836 278.218 495.131 227.508C507.426 176.797 532.9 223.901 557.17 221.583" stroke="black" stroke-linecap="round" stroke-dasharray="3 3"/>
</svg>
