<?xml version="1.0" encoding="utf-8"?>
<!-- Generator: Adobe Illustrator 22.0.1, SVG Export Plug-In . SVG Version: 6.00 Build 0)  -->
<svg version="1.1" id="Слой_1" xmlns="http://www.w3.org/2000/svg" xmlns:xlink="http://www.w3.org/1999/xlink" x="0px" y="0px"
	 width="890px" height="948px" viewBox="0 0 890 948" style="enable-background:new 0 0 890 948;" xml:space="preserve">
<style type="text/css">
	.st0{fill:#455668;}
</style>
<g transform="translate(0.000000,948.000000) scale(0.100000,-0.100000)">
	<path class="st0" d="M3672,9368c-9-9-12-111-12-398c0-362,1-388,18-403c16-15,46-17,203-17c101,0,194-3,207-6l22-6v-248v-248
		l-72-12c-349-55-588-111-793-185c-529-192-952-461-1345-855c-288-288-476-545-657-896c-571-1110-529-2443,112-3508
		c472-785,1214-1355,2096-1610c329-95,533-125,889-133c400-8,624,13,935,87c666,159,1248,483,1725,960c1019,1018,1334,2542,803,3885
		c-180,457-444,856-803,1216c-292,293-555,484-910,664c-257,129-509,224-767,289c-85,22-491,96-523,96c-6,0-10,91-10,249v249l23,6
		c12,3,106,6,208,6c167,0,188,2,202,18c15,17,17,59,17,403c0,286-3,388-12,397C5211,9385,3689,9385,3672,9368z M5145,8970v-325
		l-209-3c-134-1-214-6-223-13c-10-9-13-69-13-279c0-148-3-275-6-284c-5-14-36-16-244-16s-239,2-244,16c-3,9-6,136-6,284
		c0,210-3,270-13,279c-9,7-89,12-223,13l-209,3l-3,315c-1,173,0,321,3,327c3,11,146,13,697,11l693-3V8970z M4825,7935
		c678-76,1266-319,1827-755c116-90,437-413,542-545c427-537,679-1156,752-1848c20-189,14-620-10-797c-91-654-342-1239-750-1750
		c-88-111-435-453-561-554c-509-407-1119-657-1800-738c-144-17-606-17-750,0c-681,81-1295,332-1800,738c-137,110-421,387-527,514
		c-420,502-690,1118-783,1790c-25,178-31,609-11,797c74,693,325,1311,752,1848c117,147,431,459,574,569c530,409,1076,637,1740,726
		C4196,7954,4636,7956,4825,7935z"/>
	<path class="st0" d="M4410,7410v-100h40h40v100v100h-40h-40V7410z"/>
	<path class="st0" d="M2270,6520v-40h105h105v40v40h-105h-105V6520z"/>
	<path class="st0" d="M6420,6520v-40h105h105v40v40h-105h-105V6520z"/>
	<path class="st0" d="M4315,4917c-123-41-247-143-299-245c-146-288,7-625,319-707c160-41,341,12,466,136c62,62,101,132,127,230
		l17,64l843,3l842,2v45v45l-842,2l-843,3l-16,62c-26,96-58,152-129,224c-47,47-87,77-143,104c-75,37-84,39-190,42
		C4393,4929,4341,4925,4315,4917z M4520,4829c35-5,86-22,112-36c67-37,143-121,180-198c29-63,30-71,26-168c-4-87-8-110-32-156
		c-37-72-117-150-191-187c-55-26-69-29-165-29c-95,0-111,3-162,28c-207,101-289,336-188,536c56,111,159,191,272,210
		C4446,4841,4447,4841,4520,4829z"/>
	<path class="st0" d="M1380,4445v-45h105h105v45v45h-105h-105V4445z"/>
	<path class="st0" d="M7310,4445v-45h105h105v45v45h-105h-105V4445z"/>
	<path class="st0" d="M2270,2365v-45h105h105v45v45h-105h-105V2365z"/>
	<path class="st0" d="M6420,2365v-45h105h105v45v45h-105h-105V2365z"/>
	<path class="st0" d="M4410,1475v-105h40h40v105v105h-40h-40V1475z"/>
	<path class="st0" d="M558,8482c-193-192-308-314-308-327c0-22,428-458,473-481l29-15l137,135c75,75,141,136,147,136
		c5,0,91-82,191-182l182-183l-105-115c-410-446-695-890-897-1400c-195-492-291-965-304-1500c-24-996,269-1913,872-2725
		c99-134,132-173,294-344c262-279,491-474,781-666c597-394,1235-622,1965-701c221-24,652-24,870,0c643,70,1220,257,1750,567
		c380,222,677,460,996,800c161,171,194,209,294,344c472,634,758,1353,850,2135c9,74,19,241,22,370c18,725-134,1416-452,2051
		c-200,399-417,708-749,1069l-105,115l182,183c100,100,186,182,191,182c6,0,72-61,147-136l137-135l29,15c45,23,473,459,473,481
		c0,13-115,135-308,327c-236,236-314,308-332,308c-19,0-81-56-257-233c-131-131-233-241-233-251s61-80,135-155
		c74-76,135-142,135-147s-83-92-184-193l-185-185l-57,50c-230,199-392,321-606,455c-162,101-455,253-633,327
		c-177,75-424,157-436,145c-5-5-12-26-15-45l-6-35l148-50c634-216,1193-568,1670-1054c167-171,259-278,386-449
		c701-944,975-2138,762-3310C8399,2371,7538,1231,6349,634c-427-214-869-347-1374-416c-150-20-211-23-525-23s-375,3-525,23
		c-693,94-1269,309-1835,687C1064,1590,386,2680,230,3898c-117,911,65,1846,515,2637c523,921,1341,1595,2370,1950
		c61,21,112,40,114,42c7,5-19,83-28,83c-22,0-345-116-450-162c-427-186-786-407-1115-687c-49-42-104-89-123-105l-35-29l-184,184
		c-101,101-184,188-184,193s61,71,135,147c74,75,135,145,135,155s-102,120-233,251c-176,177-238,233-257,233
		C872,8790,794,8718,558,8482z M1080,8485l185-185l-263-262l-262-263l-185,185c-102,102-185,189-185,195c0,13,502,515,515,515
		C891,8670,978,8587,1080,8485z M8277,8418c139-139,253-257,253-263s-83-93-185-195l-185-185l-262,263l-263,262l185,185
		c102,102,189,185,195,185C8020,8670,8139,8556,8277,8418z"/>
</g>
</svg>
