<?xml version="1.0" encoding="utf-8"?>
<!-- Generator: Adobe Illustrator 22.0.1, SVG Export Plug-In . SVG Version: 6.00 Build 0)  -->
<svg version="1.1" id="Слой_1" xmlns="http://www.w3.org/2000/svg" xmlns:xlink="http://www.w3.org/1999/xlink" x="0px" y="0px"
	 width="960px" height="692px" viewBox="0 0 960 692" style="enable-background:new 0 0 960 692;" xml:space="preserve">
<style type="text/css">
	.st0{fill:#ffffff;}
</style>
<g transform="translate(0.000000,692.000000) scale(0.100000,-0.100000)">
	<path class="st0" d="M120,6710v-80h80h80v80v80h-80h-80V6710z"/>
	<path class="st0" d="M780,6710v-60l1008,2l1007,3l3,58l3,57H1790H780V6710z"/>
	<path class="st0" d="M165,6116l-25-25V3540V989l25-24l24-25h541h540v60v60H765H260v2480v2480h2955h2955V3540V1060H4710H3250v-60
		v-60h1495h1496l24,25l25,24v2549c0,2496,0,2550-19,2573l-19,24l-3032,3l-3031,2L165,6116z"/>
	<path class="st0" d="M780,5440v-60h2605h2605v60v60H3385H780V5440z"/>
	<path class="st0" d="M6430,4970v-60l757-2l756-3l698-1085l698-1085l1-837v-838h-335h-335v-60v-60h370h371l24,25l25,24v884v883
		l-47,76c-27,42-352,549-723,1127c-433,674-683,1054-698,1060c-16,8-271,11-792,11h-770V4970z"/>
	<path class="st0" d="M6747,4372c-16-17-17-84-17-755c0-655,2-737,16-751s126-16,1090-16h1074v55v55H7880H6850v655v655l573,2l572,3
		l3,58l3,57h-619C6795,4390,6762,4389,6747,4372z"/>
	<path class="st0" d="M2090,1834c-265-56-491-237-601-479c-121-267-98-575,60-816c62-94,186-213,280-269c563-334,1282,75,1281,729
		c-1,238-81,433-249,602c-125,124-262,198-432,234C2342,1853,2177,1853,2090,1834z M2440,1714c88-20,213-83,292-148
		c190-157,291-414,258-657c-34-251-179-453-405-565c-292-145-648-77-867,165c-119,132-178,276-186,458c-6,141,13,234,75,363
		c39,81,59,107,137,185c95,94,186,151,304,190C2158,1741,2305,1744,2440,1714z"/>
	<path class="st0" d="M2172,1003l3-88l88-3l87-3v91v90h-90h-91L2172,1003z"/>
	<path class="st0" d="M7501,1840c-181-38-334-122-457-251c-160-168-235-355-237-584c-1-227,73-416,230-586c103-111,262-204,418-245
		c97-26,303-26,398,0c316,84,546,311,628,621c30,112,30,298,1,410c-35,131-112,273-200,366c-119,127-221,192-382,244
		c-72,23-106,28-220,31C7606,1848,7525,1845,7501,1840z M7847,1709c84-21,155-55,238-114c284-201,384-585,236-900
		c-127-268-372-425-666-425c-332,0-606,206-706,530c-20,62-24,97-23,200c0,149,16,217,80,341C7164,1646,7505,1796,7847,1709z"/>
	<path class="st0" d="M7570,1000v-90h85h85v90v90h-85h-85V1000z"/>
	<path class="st0" d="M440,1635v-55h425h425v55v55H865H440V1635z"/>
	<path class="st0" d="M3470,1635v-55h1250h1250v55v55H4720H3470V1635z"/>
	<path class="st0" d="M8870,1635v-55h145h145v55v55h-145h-145V1635z"/>
	<path class="st0" d="M6430,1016c0-24-3-51-6-60c-5-14,8-16,105-16h111v60v60h-105h-105V1016z"/>
</g>
</svg>