<?xml version="1.0" encoding="utf-8"?>
<!-- Generator: Adobe Illustrator 22.0.1, SVG Export Plug-In . SVG Version: 6.00 Build 0)  -->
<svg version="1.1" id="Слой_1" xmlns="http://www.w3.org/2000/svg" xmlns:xlink="http://www.w3.org/1999/xlink" x="0px" y="0px"
	 width="926px" height="935px" viewBox="0 0 926 935" style="enable-background:new 0 0 926 935;" xml:space="preserve">
<style type="text/css">
	.st0{fill:#ffffff;}
</style>
<g transform="translate(0.000000,935.000000) scale(0.100000,-0.100000)">
	<path class="st0" d="M6125,9256c-68-22-181-83-1744-955l-771-430l-1432-7l-1433-6l-85-25c-240-71-423-229-521-450
		c-39-90-41-98-50-251c-6-97-9-1360-7-3297l3-3140l24-70c85-253,258-429,509-519l87-31h3690c3052,0,3698,2,3735,13
		c151,45,272,114,368,210c93,93,146,179,200,325l27,72l5,1055l5,1055l223,3l222,2v1025v1025l-222,2l-223,3l-5,1175
		c-6,1321,0,1211-85,1385c-92,190-254,328-470,401c-78,26-87,27-420,35c-187,4-376,8-420,8l-80,1l-135,243
		c-412,743-517,927-579,1010C6456,9237,6262,9299,6125,9256z M6355,9131c65-29,101-67,159-164c130-222,875-1554,1000-1788
		c56-105,67-145,44-154c-7-3-1192-4-2633-3l-2619,3l289,161c2711,1507,3523,1956,3553,1964C6199,9163,6306,9153,6355,9131z
		 M3222,7735c27-11,33-45,12-65c-11-9-279-162-597-339l-578-321h-551c-499,0-553-2-570-17c-21-19-24-58-5-70c6-4,1738-10,3847-13
		l3835-5V5885V4865l-820-5l-820-5l-92-32c-173-60-291-133-407-249c-207-209-296-431-296-739s89-530,296-739c116-116,234-189,407-249
		l92-32l820-5l820-5V1785c-1-1109-1-1108-57-1219c-92-185-232-304-433-370c-47-15-336-16-3730-14l-3680,3l-73,27
		c-106,39-177,83-257,163c-74,75-120,144-164,247l-26,63l-5,2455c-3,1350-3,2822,0,3270l5,815l27,73c72,199,211,337,420,420
		c37,14,102,17,483,23C1678,7749,3199,7745,3222,7735z M8163,7715c188-65,343-215,412-399c23-62,55-225,55-283v-23h-448h-449
		l-184,333c-124,223-184,342-184,362c0,29,2,30,55,37c30,3,195,4,365,2C8079,7739,8099,7738,8163,7715z M9075,3835v-920l-1015,2
		c-1118,1-1069-1-1226,64c-269,112-473,358-530,639c-21,107-15,389,11,485c68,246,252,461,489,570c147,68,145,68,646,75
		c250,3,718,6,1040,5h585V3835z"/>
	<path class="st0" d="M7232,4078c-45-15-128-91-155-142c-16-31-21-59-21-111c0-84,24-144,78-197c59-57,100-73,191-73
		c69,0,86,4,127,27c187,111,183,382-7,480C7398,4087,7283,4095,7232,4078z"/>
</g>
</svg>
