<?xml version="1.0" encoding="utf-8"?>
<!-- Generator: Adobe Illustrator 22.0.1, SVG Export Plug-In . SVG Version: 6.00 Build 0)  -->
<svg version="1.1" id="Слой_1" xmlns="http://www.w3.org/2000/svg" xmlns:xlink="http://www.w3.org/1999/xlink" x="0px" y="0px"
	 width="696px" height="871px" viewBox="0 0 696 871" style="enable-background:new 0 0 696 871;" xml:space="preserve">
<style type="text/css">
	.st0{fill:#455668;}
</style>
<g transform="translate(0.000000,871.000000) scale(0.100000,-0.100000)">
	<path class="st0" d="M285,8696c-112-28-197-96-244-195l-26-56V4355V265l22-48C67,152,149,69,217,34l58-29h3195h3195l65,31
		c82,39,152,110,193,194l32,65l3,4057l2,4057l-21,56c-28,74-73,132-139,177c-108,74,175,68-3320,67C1015,8708,324,8706,285,8696z
		 M2070,8103c0-241-5-469-10-507c-46-317-281-580-599-669c-73-21-98-21-684-25l-607-3l2,744l3,744l30,48c22,36,45,57,84,77l53,28
		h864h864V8103z M6681,8512c39-20,62-41,84-77l30-48l3-3810l2-3809l-27,6c-136,29-799,114-1163,150c-1752,175-3515,134-5196-119
		c-127-19-233-35-237-35s-7,1343-7,2984v2985l613,4c649,4,652,5,797,55c311,108,552,378,626,702c14,64,18,149,21,558l5,482h2198
		h2198L6681,8512z M4220,810c869-33,1820-125,2544-246l38-7l-4-106c-4-115-14-143-70-206c-17-20-48-45-69-56c-38-19-90-19-3184-19
		c-3111,0-3146,0-3184,20c-51,26-97,82-110,136c-6,23-11,85-11,137v94l37,7c696,117,1673,213,2483,245C2993,821,3916,821,4220,810z"
		/>
	<path class="st0" d="M627,8100c-50-39-43-116,12-145c26-13,88-15,421-15h392l29,29c37,37,38,79,3,120l-26,31h-403
		C667,8120,652,8119,627,8100z"/>
	<path class="st0" d="M637,7519c-9-5-24-24-33-40c-22-43-10-86,29-110c30-18,55-19,429-19h396l26,31c35,41,34,83-3,120l-29,29h-399
		C801,7530,649,7526,637,7519z"/>
	<path class="st0" d="M4775,8126c-53-23-55-39-55-377v-311l29-29l29-29h781c430,0,781,3,781,8c1,4,7,153,14,332
		c16,368,15,379-48,405C6256,8146,4822,8147,4775,8126z M6194,7893c-2-43-7-140-10-215l-6-138h-649h-649v215v215h659h659L6194,7893z
		"/>
	<path class="st0" d="M3329,8096c-223-62-379-270-379-506c0-149,55-276,167-380c289-272,767-130,868,256c69,267-94,549-364,628
		C3555,8113,3396,8114,3329,8096z M3551,7936c107-25,207-106,251-204c34-73,32-208-3-283c-37-78-89-133-162-169l-62-31l-5,126
		c-5,124-6,127-33,151c-40,34-90,32-128-5c-29-29-29-30-29-150c0-67-3-121-6-121c-23,0-132,71-164,108c-61,68-83,124-88,217
		c-5,105,19,173,90,251C3306,7928,3423,7967,3551,7936z"/>
	<path class="st0" d="M4739,6931c-56-57-28-141,52-156c19-3,370-5,781-3l746,3l25,23c32,30,41,67,26,104c-25,60,4,58-834,58h-767
		L4739,6931z"/>
	<path class="st0" d="M3295,6440c-900-65-1690-595-2080-1394c-169-347-242-640-252-1021c-12-447,69-819,262-1200
		c130-258,277-457,491-665c478-465,1085-710,1759-710c559,0,1077,172,1520,505c563,423,919,1060,986,1765c14,152,6,442-16,590
		c-100,658-449,1240-985,1640C4509,6303,3887,6483,3295,6440z M3665,6270c361-34,684-134,980-305c730-421,1175-1183,1175-2011
		c0-85-5-198-11-252c-104-966-806-1771-1753-2012c-203-51-370-72-586-72c-373,1-696,76-1025,236c-724,354-1207,1032-1305,1830
		c-14,117-14,405,0,526c49,407,207,801,454,1130c86,115,282,319,391,407c107,86,278,200,395,262C2763,6211,3242,6309,3665,6270z"/>
	<path class="st0" d="M3230,5706c-512-74-957-350-1244-774c-74-109-175-318-214-442c-62-195-77-302-77-545c0-248,16-355,81-552
		c253-774,1027-1285,1838-1215c452,39,839,220,1147,538c243,252,393,535,466,883c24,112,27,149,27,336c1,226-6,285-54,471
		c-173,659-728,1166-1410,1289C3662,5718,3357,5724,3230,5706z M3799,5520c323-69,583-211,817-444c239-239,374-486,446-816
		c20-91,23-133,22-315c0-179-3-225-22-311c-46-214-144-439-265-611c-81-115-268-301-387-385c-176-125-398-220-630-269
		c-143-31-435-33-585-5c-337,62-624,213-865,455c-311,312-470,691-471,1121c0,262,43,455,152,689c211,450,648,792,1138,890
		c139,29,148,29,356,26C3657,5543,3716,5538,3799,5520z"/>
	<path class="st0" d="M3238,5104c-358-64-655-275-819-579c-80-148-129-339-129-502c0-77,2-86,26-110c21-21,32-24,62-20
		c57,10,64,24,74,146c32,421,322,771,738,892c35,10,114,24,175,29c60,6,120,15,132,20c40,17,40,105-1,132
		C3478,5124,3321,5119,3238,5104z"/>
	<path class="st0" d="M4440,3962c-20-16-24-32-31-123c-19-244-112-450-282-626c-159-165-397-283-601-299c-127-9-157-15-177-35
		c-27-27-24-75,6-104c20-21,34-25,84-25c281,0,597,135,807,344c204,205,324,484,324,758c0,70-3,82-25,103
		C4516,3985,4472,3988,4440,3962z"/>
</g>
</svg>
